{
    "asset" : {
        "generator" : "Khronos glTF Blender I/O v1.3.48",
        "version" : "2.0"
    },
    "extensionsUsed" : [
        "KHR_materials_clearcoat"
    ],
    "scene" : 0,
    "scenes" : [
        {
            "name" : "Scene",
            "nodes" : [
                0,
                1,
                2
            ]
        }
    ],
    "nodes" : [
        {
            "mesh" : 0,
            "name" : "Main Box",
            "scale" : [
                -2.1685256958007812,
                -2.1685256958007812,
                -2.1685256958007812
            ],
            "translation" : [
                0,
                -0.11006467789411545,
                0
            ]
        },
        {
            "mesh" : 1,
            "name" : "Speaker Grill",
            "scale" : [
                0.008352127857506275,
                1,
                0.008352127857506275
            ],
            "translation" : [
                -0.2092224657535553,
                0.5961053967475891,
                0.38391610980033875
            ]
        },
        {
            "mesh" : 2,
            "name" : "Name Badge",
            "rotation" : [
                0.3030990958213806,
                0.6388512849807739,
                -0.303099125623703,
                0.6388513445854187
            ],
            "translation" : [
                0.7713162899017334,
                0.5461385250091553,
                0.11918279528617859
            ]
        }
    ],
    "materials" : [
        {
            "doubleSided" : true,
            "emissiveFactor" : [
                0,
                0,
                0
            ],
            "extensions" : {
                "KHR_materials_clearcoat" : {
                    "clearcoatFactor" : 0.07373271882534027,
                    "clearcoatRoughnessFactor" : 0.029999999329447746
                }
            },
            "name" : "Material",
            "pbrMetallicRoughness" : {
                "baseColorFactor" : [
                    0.8000000715255737,
                    0.6745357513427734,
                    0.22510652244091034,
                    1
                ],
                "metallicFactor" : 0.20000000298023224,
                "roughnessFactor" : 0.20000000298023224
            }
        },
        {
            "doubleSided" : true,
            "emissiveFactor" : [
                0,
                0,
                0
            ],
            "name" : "Material.002",
            "pbrMetallicRoughness" : {
                "baseColorFactor" : [
                    0,
                    0,
                    0,
                    1
                ],
                "metallicFactor" : 0,
                "roughnessFactor" : 0.6474654078483582
            }
        },
        {
            "doubleSided" : true,
            "emissiveFactor" : [
                0,
                0,
                0
            ],
            "name" : "Name Badge",
            "pbrMetallicRoughness" : {
                "baseColorFactor" : [
                    0.800000011920929,
                    0.800000011920929,
                    0.800000011920929,
                    1
                ],
                "metallicFactor" : 0.8686636090278625,
                "roughnessFactor" : 0.8317972421646118
            }
        }
    ],
    "meshes" : [
        {
            "name" : "Cube",
            "primitives" : [
                {
                    "attributes" : {
                        "POSITION" : 0,
                        "NORMAL" : 1,
                        "TEXCOORD_0" : 2
                    },
                    "indices" : 3,
                    "material" : 0
                }
            ]
        },
        {
            "name" : "Plane.001",
            "primitives" : [
                {
                    "attributes" : {
                        "POSITION" : 4,
                        "NORMAL" : 5,
                        "TEXCOORD_0" : 6
                    },
                    "indices" : 7,
                    "material" : 1
                }
            ]
        },
        {
            "name" : "Mimi Box",
            "primitives" : [
                {
                    "attributes" : {
                        "POSITION" : 8,
                        "NORMAL" : 9,
                        "TEXCOORD_0" : 10
                    },
                    "indices" : 11,
                    "material" : 2
                }
            ]
        }
    ],
    "accessors" : [
        {
            "bufferView" : 0,
            "componentType" : 5126,
            "count" : 112,
            "max" : [
                0.6335326433181763,
                0.9492444396018982,
                1
            ],
            "min" : [
                -0.6335326433181763,
                -0.32857832312583923,
                -1
            ],
            "type" : "VEC3"
        },
        {
            "bufferView" : 1,
            "componentType" : 5126,
            "count" : 112,
            "type" : "VEC3"
        },
        {
            "bufferView" : 2,
            "componentType" : 5126,
            "count" : 112,
            "type" : "VEC2"
        },
        {
            "bufferView" : 3,
            "componentType" : 5123,
            "count" : 168,
            "type" : "SCALAR"
        },
        {
            "bufferView" : 4,
            "componentType" : 5126,
            "count" : 83392,
            "max" : [
                51,
                0,
                1
            ],
            "min" : [
                -1,
                -0.025698142126202583,
                -93
            ],
            "type" : "VEC3"
        },
        {
            "bufferView" : 5,
            "componentType" : 5126,
            "count" : 83392,
            "type" : "VEC3"
        },
        {
            "bufferView" : 6,
            "componentType" : 5126,
            "count" : 83392,
            "type" : "VEC2"
        },
        {
            "bufferView" : 7,
            "componentType" : 5125,
            "count" : 161304,
            "type" : "SCALAR"
        },
        {
            "bufferView" : 8,
            "componentType" : 5126,
            "count" : 4132,
            "max" : [
                -0.006564261857420206,
                0.012000000104308128,
                0.10430343449115753
            ],
            "min" : [
                -0.5844500660896301,
                -0.009999999776482582,
                -0.0033500005956739187
            ],
            "type" : "VEC3"
        },
        {
            "bufferView" : 9,
            "componentType" : 5126,
            "count" : 4132,
            "type" : "VEC3"
        },
        {
            "bufferView" : 10,
            "componentType" : 5126,
            "count" : 4132,
            "type" : "VEC2"
        },
        {
            "bufferView" : 11,
            "componentType" : 5123,
            "count" : 17124,
            "type" : "SCALAR"
        }
    ],
    "bufferViews" : [
        {
            "buffer" : 0,
            "byteLength" : 1344,
            "byteOffset" : 0
        },
        {
            "buffer" : 0,
            "byteLength" : 1344,
            "byteOffset" : 1344
        },
        {
            "buffer" : 0,
            "byteLength" : 896,
            "byteOffset" : 2688
        },
        {
            "buffer" : 0,
            "byteLength" : 336,
            "byteOffset" : 3584
        },
        {
            "buffer" : 0,
            "byteLength" : 1000704,
            "byteOffset" : 3920
        },
        {
            "buffer" : 0,
            "byteLength" : 1000704,
            "byteOffset" : 1004624
        },
        {
            "buffer" : 0,
            "byteLength" : 667136,
            "byteOffset" : 2005328
        },
        {
            "buffer" : 0,
            "byteLength" : 645216,
            "byteOffset" : 2672464
        },
        {
            "buffer" : 0,
            "byteLength" : 49584,
            "byteOffset" : 3317680
        },
        {
            "buffer" : 0,
            "byteLength" : 49584,
            "byteOffset" : 3367264
        },
        {
            "buffer" : 0,
            "byteLength" : 33056,
            "byteOffset" : 3416848
        },
        {
            "buffer" : 0,
            "byteLength" : 34248,
            "byteOffset" : 3449904
        }
    ],
    "buffers" : [
        {
            "byteLength" : 3484152,
            "uri" : "Mimi box.bin"
        }
    ]
}
