{
    "asset" : {
        "generator" : "Khronos glTF Blender I/O v1.3.48",
        "version" : "2.0"
    },
    "extensionsUsed" : [
        "KHR_materials_clearcoat"
    ],
    "scene" : 0,
    "scenes" : [
        {
            "name" : "Scene",
            "nodes" : [
                0
            ]
        }
    ],
    "nodes" : [
        {
            "mesh" : 0,
            "name" : "Cube.003",
            "rotation" : [
                0.4286469519138336,
                0.9034720659255981,
                0,
                6.821024101100193e-08
            ],
            "scale" : [
                0.03149423748254776,
                0.03149423748254776,
                0.03149423748254776
            ],
            "translation" : [
                0.8703874945640564,
                0.4650876820087433,
                -0.3808777928352356
            ]
        }
    ],
    "animations" : [
        {
            "channels" : [
                {
                    "sampler" : 0,
                    "target" : {
                        "node" : 0,
                        "path" : "translation"
                    }
                },
                {
                    "sampler" : 1,
                    "target" : {
                        "node" : 0,
                        "path" : "rotation"
                    }
                },
                {
                    "sampler" : 2,
                    "target" : {
                        "node" : 0,
                        "path" : "scale"
                    }
                }
            ],
            "name" : "CubeAction.003",
            "samplers" : [
                {
                    "input" : 8,
                    "interpolation" : "STEP",
                    "output" : 9
                },
                {
                    "input" : 8,
                    "interpolation" : "STEP",
                    "output" : 10
                },
                {
                    "input" : 8,
                    "interpolation" : "STEP",
                    "output" : 11
                }
            ]
        }
    ],
    "materials" : [
        {
            "doubleSided" : true,
            "emissiveFactor" : [
                0,
                0,
                0
            ],
            "extensions" : {
                "KHR_materials_clearcoat" : {
                    "clearcoatFactor" : 0.26623374223709106,
                    "clearcoatRoughnessFactor" : 0.029999999329447746
                }
            },
            "name" : "Buttons.003",
            "pbrMetallicRoughness" : {
                "baseColorFactor" : [
                    0.1644783765077591,
                    0.1644783765077591,
                    0.1644783765077591,
                    1
                ],
                "metallicFactor" : 0.2194805145263672,
                "roughnessFactor" : 0.5
            }
        },
        {
            "doubleSided" : true,
            "emissiveFactor" : [
                0,
                0,
                0
            ],
            "name" : "Material.006",
            "pbrMetallicRoughness" : {
                "baseColorTexture" : {
                    "index" : 0,
                    "texCoord" : 0
                },
                "metallicFactor" : 0,
                "roughnessFactor" : 0.5
            }
        }
    ],
    "meshes" : [
        {
            "name" : "Cube.004",
            "primitives" : [
                {
                    "attributes" : {
                        "POSITION" : 0,
                        "NORMAL" : 1,
                        "TEXCOORD_0" : 2
                    },
                    "indices" : 3,
                    "material" : 0
                },
                {
                    "attributes" : {
                        "POSITION" : 4,
                        "NORMAL" : 5,
                        "TEXCOORD_0" : 6
                    },
                    "indices" : 7,
                    "material" : 1
                }
            ]
        }
    ],
    "textures" : [
        {
            "source" : 0
        }
    ],
    "images" : [
        {
            "mimeType" : "image/png",
            "name" : "pngegg",
            "uri" : "textures/pngegg.png"
        }
    ],
    "accessors" : [
        {
            "bufferView" : 0,
            "componentType" : 5126,
            "count" : 2516,
            "max" : [
                1,
                -0.15545141696929932,
                1
            ],
            "min" : [
                -1,
                -1,
                -1
            ],
            "type" : "VEC3"
        },
        {
            "bufferView" : 1,
            "componentType" : 5126,
            "count" : 2516,
            "type" : "VEC3"
        },
        {
            "bufferView" : 2,
            "componentType" : 5126,
            "count" : 2516,
            "type" : "VEC2"
        },
        {
            "bufferView" : 3,
            "componentType" : 5123,
            "count" : 3846,
            "type" : "SCALAR"
        },
        {
            "bufferView" : 4,
            "componentType" : 5126,
            "count" : 4,
            "max" : [
                0.7849977016448975,
                -0.15545141696929932,
                0.7849977016448975
            ],
            "min" : [
                -0.7849977016448975,
                -0.15545141696929932,
                -0.7849977016448975
            ],
            "type" : "VEC3"
        },
        {
            "bufferView" : 5,
            "componentType" : 5126,
            "count" : 4,
            "type" : "VEC3"
        },
        {
            "bufferView" : 6,
            "componentType" : 5126,
            "count" : 4,
            "type" : "VEC2"
        },
        {
            "bufferView" : 7,
            "componentType" : 5123,
            "count" : 6,
            "type" : "SCALAR"
        },
        {
            "bufferView" : 8,
            "componentType" : 5126,
            "count" : 1,
            "max" : [
                0
            ],
            "min" : [
                0
            ],
            "type" : "SCALAR"
        },
        {
            "bufferView" : 9,
            "componentType" : 5126,
            "count" : 1,
            "type" : "VEC3"
        },
        {
            "bufferView" : 10,
            "componentType" : 5126,
            "count" : 1,
            "type" : "VEC4"
        },
        {
            "bufferView" : 11,
            "componentType" : 5126,
            "count" : 1,
            "type" : "VEC3"
        }
    ],
    "bufferViews" : [
        {
            "buffer" : 0,
            "byteLength" : 30192,
            "byteOffset" : 0
        },
        {
            "buffer" : 0,
            "byteLength" : 30192,
            "byteOffset" : 30192
        },
        {
            "buffer" : 0,
            "byteLength" : 20128,
            "byteOffset" : 60384
        },
        {
            "buffer" : 0,
            "byteLength" : 7692,
            "byteOffset" : 80512
        },
        {
            "buffer" : 0,
            "byteLength" : 48,
            "byteOffset" : 88204
        },
        {
            "buffer" : 0,
            "byteLength" : 48,
            "byteOffset" : 88252
        },
        {
            "buffer" : 0,
            "byteLength" : 32,
            "byteOffset" : 88300
        },
        {
            "buffer" : 0,
            "byteLength" : 12,
            "byteOffset" : 88332
        },
        {
            "buffer" : 0,
            "byteLength" : 4,
            "byteOffset" : 88344
        },
        {
            "buffer" : 0,
            "byteLength" : 12,
            "byteOffset" : 88348
        },
        {
            "buffer" : 0,
            "byteLength" : 16,
            "byteOffset" : 88360
        },
        {
            "buffer" : 0,
            "byteLength" : 12,
            "byteOffset" : 88376
        }
    ],
    "buffers" : [
        {
            "byteLength" : 88388,
            "uri" : "Mimi box.bin"
        }
    ]
}
